<?xml version="1.0" encoding="UTF-8" standalone="no"?>
<!-- Created with Inkscape (http://www.inkscape.org/) -->

<svg
   width="85mm"
   height="55mm"
   viewBox="0 0 85 55"
   version="1.1"
   id="svg1"
   inkscape:version="1.4 (e7c3feb100, 2024-10-09)"
   sodipodi:docname="lab-flash.svg"
   xml:space="preserve"
   xmlns:inkscape="http://www.inkscape.org/namespaces/inkscape"
   xmlns:sodipodi="http://sodipodi.sourceforge.net/DTD/sodipodi-0.dtd"
   xmlns:xlink="http://www.w3.org/1999/xlink"
   xmlns="http://www.w3.org/2000/svg"
   xmlns:svg="http://www.w3.org/2000/svg"><sodipodi:namedview
     id="namedview1"
     pagecolor="#505050"
     bordercolor="#eeeeee"
     borderopacity="1"
     inkscape:showpageshadow="0"
     inkscape:pageopacity="0"
     inkscape:pagecheckerboard="0"
     inkscape:deskcolor="#505050"
     inkscape:document-units="mm"
     inkscape:zoom="5.9152637"
     inkscape:cx="176.3235"
     inkscape:cy="113.43535"
     inkscape:window-width="3840"
     inkscape:window-height="2160"
     inkscape:window-x="0"
     inkscape:window-y="0"
     inkscape:window-maximized="1"
     inkscape:current-layer="layer1" /><defs
     id="defs1"><linearGradient
       id="linearGradient2795"><stop
         style="stop-color:#b8b8b8;stop-opacity:0.49803922;"
         offset="0"
         id="stop2797" /><stop
         style="stop-color:#7f7f7f;stop-opacity:0;"
         offset="1"
         id="stop2799" /></linearGradient><linearGradient
       id="linearGradient2787"><stop
         style="stop-color:#7f7f7f;stop-opacity:0.5;"
         offset="0"
         id="stop2789" /><stop
         style="stop-color:#7f7f7f;stop-opacity:0;"
         offset="1"
         id="stop2791" /></linearGradient><linearGradient
       id="linearGradient3676"><stop
         style="stop-color:#b2b2b2;stop-opacity:0.5;"
         offset="0"
         id="stop3678" /><stop
         style="stop-color:#b3b3b3;stop-opacity:0;"
         offset="1"
         id="stop3680" /></linearGradient><linearGradient
       id="linearGradient3236"><stop
         style="stop-color:#f4f4f4;stop-opacity:1"
         offset="0"
         id="stop3244" /><stop
         style="stop-color:white;stop-opacity:1"
         offset="1"
         id="stop3240" /></linearGradient><linearGradient
       id="linearGradient4671"><stop
         style="stop-color:#ffd43b;stop-opacity:1;"
         offset="0"
         id="stop4673" /><stop
         style="stop-color:#ffe873;stop-opacity:1"
         offset="1"
         id="stop4675" /></linearGradient><linearGradient
       id="linearGradient4689"><stop
         style="stop-color:#5a9fd4;stop-opacity:1;"
         offset="0"
         id="stop4691" /><stop
         style="stop-color:#306998;stop-opacity:1;"
         offset="1"
         id="stop4693" /></linearGradient><linearGradient
       x1="224.23996"
       y1="144.75717"
       x2="-65.308502"
       y2="144.75717"
       id="linearGradient2987"
       xlink:href="#linearGradient4671"
       gradientUnits="userSpaceOnUse"
       gradientTransform="translate(100.2702,99.61116)" /><linearGradient
       x1="172.94208"
       y1="77.475983"
       x2="26.670298"
       y2="76.313133"
       id="linearGradient2990"
       xlink:href="#linearGradient4689"
       gradientUnits="userSpaceOnUse"
       gradientTransform="translate(100.2702,99.61116)" /><linearGradient
       inkscape:collect="always"
       xlink:href="#linearGradient4671"
       id="linearGradient2255"
       gradientUnits="userSpaceOnUse"
       gradientTransform="matrix(0.562541,0,0,0.567972,-11.5974,-7.60954)"
       x1="224.23996"
       y1="144.75717"
       x2="-65.308502"
       y2="144.75717" /><linearGradient
       inkscape:collect="always"
       xlink:href="#linearGradient4689"
       id="linearGradient2258"
       gradientUnits="userSpaceOnUse"
       gradientTransform="matrix(0.562541,0,0,0.567972,-11.5974,-7.60954)"
       x1="172.94208"
       y1="76.176224"
       x2="26.670298"
       y2="76.313133" /><radialGradient
       inkscape:collect="always"
       xlink:href="#linearGradient2795"
       id="radialGradient2801"
       cx="61.518883"
       cy="132.28575"
       fx="61.518883"
       fy="132.28575"
       r="29.036913"
       gradientTransform="matrix(1,0,0,0.177966,0,108.7434)"
       gradientUnits="userSpaceOnUse" /></defs><g
     inkscape:label="Layer 1"
     inkscape:groupmode="layer"
     id="layer1"><path
       id="rect1"
       style="fill:#94e2d5;stroke:none;stroke-width:0.529167;paint-order:stroke markers fill"
       d="M 2.500105,0 C 1.115105,0 0,1.115106 0,2.500106 v 50.000049 c 0,1.385 1.115105,2.499589 2.500105,2.499589 H 15.000118 V 0 Z"
       sodipodi:nodetypes="ssssccs" /><path
       id="rect3"
       style="fill:#313244;stroke:none;stroke-width:0.529167;paint-order:stroke markers fill"
       d="m 15.000118,0 v 54.999744 h 67.499764 c 1.385,0 2.50011,-1.114589 2.50011,-2.499589 V 2.5001058 C 84.999992,1.1151058 83.884882,0 82.499882,0 Z" /><text
       xml:space="preserve"
       style="font-size:4.23333px;font-family:'JetBrainsMono Nerd Font';-inkscape-font-specification:'JetBrainsMono Nerd Font';text-align:center;letter-spacing:-0.132292px;writing-mode:lr-tb;direction:ltr;text-anchor:middle;fill:#181825;stroke:none;stroke-width:0.529167;paint-order:stroke markers fill"
       x="-27.499872"
       y="9.0240574"
       id="text1"
       transform="rotate(-90)"><tspan
         sodipodi:role="line"
         id="tspan1"
         style="text-align:center;text-anchor:middle;fill:#181825;stroke:none;stroke-width:0.529167"
         x="-27.566019"
         y="9.0240574">Firmware</tspan></text><g
       id="g125"
       transform="rotate(180,76.131759,52.676457)"><path
         style="opacity:1;fill:#cba6f7;stroke-width:0.264583"
         d="M 93.569397,81.511623 V 60.207757 c 0,0 -0.02703,-0.702918 0.892167,-0.756991 0.919202,-0.05407 3.595704,0 4.731189,0 1.135487,0 0.946237,-2.108759 3.109067,-2.108759 2.16283,0 18.62737,-0.16221 20.92537,-0.16221 2.29801,0 3.94715,1.51398 4.65007,2.162828 0.13518,3.352385 0.027,19.519532 10e-6,21.168691 -0.95232,1.293246 -0.89216,2.162834 -4.65008,2.243939 -3.75791,0.08111 -27.278681,-0.108146 -28.441202,-0.08111 -1.162521,0.02703 -1.216591,-1.162521 -1.216591,-1.162522 z"
         id="path4"
         sodipodi:nodetypes="ccssssccssc" /><rect
         style="fill:#6c7086;stroke-width:0.264583"
         id="rect5"
         width="2.3250413"
         height="1.3788036"
         x="95.84037"
         y="57.585323"
         ry="0.25" /><rect
         style="fill:#cdd6f4;stroke-width:0.264583"
         id="rect4"
         width="4.5419412"
         height="2.3520768"
         x="94.731918"
         y="58.693775"
         ry="0.25" /><rect
         style="fill:#6c7086;stroke-width:0.264583"
         id="rect6"
         width="2.3250413"
         height="1.3788036"
         x="95.84037"
         y="-83.863708"
         ry="0.25"
         transform="scale(1,-1)" /><rect
         style="fill:#cdd6f4;stroke-width:0.264583"
         id="rect7"
         width="4.5419412"
         height="2.3520768"
         x="94.731918"
         y="-82.755257"
         ry="0.25"
         transform="scale(1,-1)" /><rect
         style="fill:#313244;stroke-width:0.264583"
         id="rect8"
         width="6.9210534"
         height="6.9210534"
         x="108.00628"
         y="67.696548"
         ry="0.25" /><path
         id="rect9"
         style="fill:#cdd6f4;stroke-width:0.299784"
         d="m 108.83625,67.235173 c -0.0554,0 -0.0997,0.04434 -0.0997,0.09973 v 0.44235 c 0,0.0554 0.0443,0.09974 0.0997,0.09974 h 0.0165 c 0.0554,0 0.10025,-0.04434 0.10025,-0.09974 v -0.44235 c 0,-0.0554 -0.0449,-0.09973 -0.10025,-0.09973 z m 0.40359,0 c -0.0554,0 -0.0997,0.04434 -0.0997,0.09973 v 0.44235 c 0,0.0554 0.0443,0.09974 0.0997,0.09974 h 0.0165 c 0.0554,0 0.0997,-0.04434 0.0997,-0.09974 v -0.44235 c 0,-0.0554 -0.0443,-0.09973 -0.0997,-0.09973 z m 0.4036,0 c -0.0554,0 -0.10026,0.04434 -0.10026,0.09973 v 0.44235 c 0,0.0554 0.0448,0.09974 0.10026,0.09974 h 0.016 c 0.0554,0 0.10025,-0.04434 0.10025,-0.09974 v -0.44235 c 0,-0.0554 -0.0448,-0.09973 -0.10025,-0.09973 z m 0.40307,0 c -0.0554,0 -0.0997,0.04434 -0.0997,0.09973 v 0.44235 c 0,0.0554 0.0443,0.09974 0.0997,0.09974 h 0.0165 c 0.0554,0 0.0997,-0.04434 0.0997,-0.09974 v -0.44235 c 0,-0.0554 -0.0443,-0.09973 -0.0997,-0.09973 z m 0.4036,0 c -0.0554,0 -0.10026,0.04434 -0.10026,0.09973 v 0.44235 c 0,0.0554 0.0449,0.09974 0.10026,0.09974 h 0.016 c 0.0554,0 0.10025,-0.04434 0.10025,-0.09974 v -0.44235 c 0,-0.0554 -0.0448,-0.09973 -0.10025,-0.09973 z m 0.40359,0 c -0.0554,0 -0.10025,0.04434 -0.10025,0.09973 v 0.44235 c 0,0.0554 0.0448,0.09974 0.10025,0.09974 h 0.016 c 0.0554,0 0.10025,-0.04434 0.10025,-0.09974 v -0.44235 c 0,-0.0554 -0.0449,-0.09973 -0.10025,-0.09973 z m 0.40307,0 c -0.0554,0 -0.0997,0.04434 -0.0997,0.09973 v 0.44235 c 0,0.0554 0.0443,0.09974 0.0997,0.09974 h 0.0165 c 0.0554,0 0.0997,-0.04434 0.0997,-0.09974 v -0.44235 c 0,-0.0554 -0.0443,-0.09973 -0.0997,-0.09973 z m 0.4036,0 c -0.0554,0 -0.10025,0.04434 -0.10025,0.09973 v 0.44235 c 0,0.0554 0.0448,0.09974 0.10025,0.09974 h 0.016 c 0.0554,0 0.10025,-0.04434 0.10025,-0.09974 v -0.44235 c 0,-0.0554 -0.0449,-0.09973 -0.10025,-0.09973 z m 0.40307,0 c -0.0554,0 -0.0997,0.04434 -0.0997,0.09973 v 0.44235 c 0,0.0554 0.0443,0.09974 0.0997,0.09974 h 0.0165 c 0.0554,0 0.0997,-0.04434 0.0997,-0.09974 v -0.44235 c 0,-0.0554 -0.0443,-0.09973 -0.0997,-0.09973 z m 0.4036,0 c -0.0554,0 -0.0997,0.04434 -0.0997,0.09973 v 0.44235 c 0,0.0554 0.0443,0.09974 0.0997,0.09974 h 0.0165 c 0.0554,0 0.0997,-0.04434 0.0997,-0.09974 v -0.44235 c 0,-0.0554 -0.0443,-0.09973 -0.0997,-0.09973 z m 0.40359,0 c -0.0554,0 -0.10025,0.04434 -0.10025,0.09973 v 0.44235 c 0,0.0554 0.0449,0.09974 0.10025,0.09974 h 0.016 c 0.0554,0 0.10025,-0.04434 0.10025,-0.09974 v -0.44235 c 0,-0.0554 -0.0448,-0.09973 -0.10025,-0.09973 z m 0.40308,0 c -0.0554,0 -0.0997,0.04434 -0.0997,0.09973 v 0.44235 c 0,0.0554 0.0443,0.09974 0.0997,0.09974 h 0.0165 c 0.0554,0 0.0997,-0.04434 0.0997,-0.09974 v -0.44235 c 0,-0.0554 -0.0443,-0.09973 -0.0997,-0.09973 z m 0.40359,0 c -0.0554,0 -0.10025,0.04434 -0.10025,0.09973 v 0.44235 c 0,0.0554 0.0448,0.09974 0.10025,0.09974 h 0.016 c 0.0554,0 0.10025,-0.04434 0.10025,-0.09974 v -0.44235 c 0,-0.0554 -0.0449,-0.09973 -0.10025,-0.09973 z m 0.40359,0 c -0.0554,0 -0.10025,0.04434 -0.10025,0.09973 v 0.44235 c 0,0.0554 0.0448,0.09974 0.10025,0.09974 h 0.016 c 0.0554,0 0.10025,-0.04434 0.10025,-0.09974 v -0.44235 c 0,-0.0554 -0.0448,-0.09973 -0.10025,-0.09973 z m -6.4363,1.191658 c -0.0554,0 -0.0997,0.04434 -0.0997,0.09974 v 0.01654 c 0,0.05536 0.0443,0.100252 0.0997,0.100252 h 0.44235 c 0.0554,0 0.0997,-0.04485 0.0997,-0.100252 v -0.01654 c 0,-0.0554 -0.0443,-0.09974 -0.0997,-0.09974 z m 7.20215,0 c -0.0554,0 -0.0997,0.04434 -0.0997,0.09974 v 0.01654 c 0,0.0554 0.0443,0.100252 0.0997,0.100252 h 0.44235 c 0.0554,0 0.0997,-0.04489 0.0997,-0.100252 v -0.01654 c 0,-0.0554 -0.0443,-0.09974 -0.0997,-0.09974 z m -7.20215,0.403593 c -0.0554,0 -0.0997,0.04434 -0.0997,0.09974 v 0.01654 c 0,0.0554 0.0443,0.09973 0.0997,0.09973 h 0.44235 c 0.0554,0 0.0997,-0.04434 0.0997,-0.09973 v -0.01654 c 0,-0.0554 -0.0443,-0.09974 -0.0997,-0.09974 z m 7.20215,0 c -0.0554,0 -0.0997,0.04434 -0.0997,0.09974 v 0.01654 c 0,0.0554 0.0443,0.09973 0.0997,0.09973 h 0.44235 c 0.0554,0 0.0997,-0.04434 0.0997,-0.09973 v -0.01654 c 0,-0.0554 -0.0443,-0.09974 -0.0997,-0.09974 z m -7.20215,0.403076 c -0.0554,0 -0.0997,0.04485 -0.0997,0.100252 v 0.01602 c 0,0.05545 0.0443,0.100252 0.0997,0.100252 h 0.44235 c 0.0554,0 0.0997,-0.04485 0.0997,-0.100252 v -0.01602 c 0,-0.05535 -0.0443,-0.100252 -0.0997,-0.100252 z m 7.20215,0 c -0.0554,0 -0.0997,0.0448 -0.0997,0.100252 v 0.01602 c 0,0.0554 0.0443,0.100252 0.0997,0.100252 h 0.44235 c 0.0554,0 0.0997,-0.0448 0.0997,-0.100252 v -0.01602 c 0,-0.0554 -0.0443,-0.100252 -0.0997,-0.100252 z m -7.20215,0.403593 c -0.0554,0 -0.0997,0.04434 -0.0997,0.09974 v 0.01654 c 0,0.0554 0.0443,0.09974 0.0997,0.09974 h 0.44235 c 0.0554,0 0.0997,-0.04434 0.0997,-0.09974 v -0.01654 c 0,-0.0554 -0.0443,-0.09974 -0.0997,-0.09974 z m 7.20215,0 c -0.0554,0 -0.0997,0.04434 -0.0997,0.09974 v 0.01654 c 0,0.0554 0.0443,0.09974 0.0997,0.09974 h 0.44235 c 0.0554,0 0.0997,-0.04434 0.0997,-0.09974 v -0.01654 c 0,-0.0554 -0.0443,-0.09974 -0.0997,-0.09974 z m -7.20215,0.403076 c -0.0554,0 -0.0997,0.04485 -0.0997,0.100253 v 0.01602 c 0,0.05545 0.0443,0.100253 0.0997,0.100253 h 0.44235 c 0.0554,0 0.0997,-0.04485 0.0997,-0.100253 v -0.01602 c 0,-0.05545 -0.0443,-0.100253 -0.0997,-0.100253 z m 7.20215,0 c -0.0554,0 -0.0997,0.0449 -0.0997,0.100253 v 0.01602 c 0,0.0554 0.0443,0.100253 0.0997,0.100253 h 0.44235 c 0.0554,0 0.0997,-0.0448 0.0997,-0.100253 v -0.01602 c 0,-0.0554 -0.0443,-0.100253 -0.0997,-0.100253 z m -7.20215,0.403593 c -0.0554,0 -0.0997,0.04485 -0.0997,0.100252 v 0.01602 c 0,0.05536 0.0443,0.100252 0.0997,0.100252 h 0.44235 c 0.0554,0 0.0997,-0.04485 0.0997,-0.100252 v -0.01602 c 0,-0.05545 -0.0443,-0.100252 -0.0997,-0.100252 z m 7.20215,0 c -0.0554,0 -0.0997,0.0448 -0.0997,0.100252 v 0.01602 c 0,0.0554 0.0443,0.100252 0.0997,0.100252 h 0.44235 c 0.0554,0 0.0997,-0.04489 0.0997,-0.100252 v -0.01602 c 0,-0.0554 -0.0443,-0.100252 -0.0997,-0.100252 z m -7.20215,0.403593 c -0.0554,0 -0.0997,0.04434 -0.0997,0.09974 v 0.01654 c 0,0.0554 0.0443,0.09974 0.0997,0.09974 h 0.44235 c 0.0554,0 0.0997,-0.04434 0.0997,-0.09974 v -0.01654 c 0,-0.0554 -0.0443,-0.09974 -0.0997,-0.09974 z m 7.20215,0 c -0.0554,0 -0.0997,0.04434 -0.0997,0.09974 v 0.01654 c 0,0.0554 0.0443,0.09974 0.0997,0.09974 h 0.44235 c 0.0554,0 0.0997,-0.04434 0.0997,-0.09974 v -0.01654 c 0,-0.0554 -0.0443,-0.09974 -0.0997,-0.09974 z m -7.20215,0.403076 c -0.0554,0 -0.0997,0.04485 -0.0997,0.100253 v 0.01602 c 0,0.05536 0.0443,0.100253 0.0997,0.100253 h 0.44235 c 0.0554,0 0.0997,-0.04485 0.0997,-0.100253 v -0.01602 c 0,-0.05545 -0.0443,-0.100253 -0.0997,-0.100253 z m 7.20215,0 c -0.0554,0 -0.0997,0.0448 -0.0997,0.100253 v 0.01602 c 0,0.0554 0.0443,0.100253 0.0997,0.100253 h 0.44235 c 0.0554,0 0.0997,-0.04489 0.0997,-0.100253 v -0.01602 c 0,-0.0554 -0.0443,-0.100253 -0.0997,-0.100253 z m -7.20215,0.403593 c -0.0554,0 -0.0997,0.04434 -0.0997,0.09974 v 0.01654 c 0,0.0554 0.0443,0.09974 0.0997,0.09974 h 0.44235 c 0.0554,0 0.0997,-0.04434 0.0997,-0.09974 v -0.01654 c 0,-0.0554 -0.0443,-0.09974 -0.0997,-0.09974 z m 7.20215,0 c -0.0554,0 -0.0997,0.04434 -0.0997,0.09974 v 0.01654 c 0,0.0554 0.0443,0.09974 0.0997,0.09974 h 0.44235 c 0.0554,0 0.0997,-0.04434 0.0997,-0.09974 v -0.01654 c 0,-0.0554 -0.0443,-0.09974 -0.0997,-0.09974 z m -7.20215,0.403593 c -0.0554,0 -0.0997,0.04434 -0.0997,0.09974 v 0.01654 c 0,0.0554 0.0443,0.09974 0.0997,0.09974 h 0.44235 c 0.0554,0 0.0997,-0.04434 0.0997,-0.09974 v -0.01654 c 0,-0.0554 -0.0443,-0.09974 -0.0997,-0.09974 z m 7.20215,0 c -0.0554,0 -0.0997,0.04434 -0.0997,0.09974 v 0.01654 c 0,0.0554 0.0443,0.09974 0.0997,0.09974 h 0.44235 c 0.0554,0 0.0997,-0.04434 0.0997,-0.09974 v -0.01654 c 0,-0.0554 -0.0443,-0.09974 -0.0997,-0.09974 z m -7.20215,0.403076 c -0.0554,0 -0.0997,0.04485 -0.0997,0.100253 v 0.01602 c 0,0.05545 0.0443,0.100253 0.0997,0.100253 h 0.44235 c 0.0554,0 0.0997,-0.04485 0.0997,-0.100253 v -0.01602 c 0,-0.05536 -0.0443,-0.100253 -0.0997,-0.100253 z m 7.20215,0 c -0.0554,0 -0.0997,0.04489 -0.0997,0.100253 v 0.01602 c 0,0.0554 0.0443,0.100253 0.0997,0.100253 h 0.44235 c 0.0554,0 0.0997,-0.0448 0.0997,-0.100253 v -0.01602 c 0,-0.0554 -0.0443,-0.100253 -0.0997,-0.100253 z m -7.20215,0.403593 c -0.0554,0 -0.0997,0.04434 -0.0997,0.09974 v 0.01654 c 0,0.0554 0.0443,0.09974 0.0997,0.09974 h 0.44235 c 0.0554,0 0.0997,-0.04434 0.0997,-0.09974 v -0.01654 c 0,-0.0554 -0.0443,-0.09974 -0.0997,-0.09974 z m 7.20215,0 c -0.0554,0 -0.0997,0.04434 -0.0997,0.09974 v 0.01654 c 0,0.0554 0.0443,0.09974 0.0997,0.09974 h 0.44235 c 0.0554,0 0.0997,-0.04434 0.0997,-0.09974 v -0.01654 c 0,-0.0554 -0.0443,-0.09974 -0.0997,-0.09974 z m -7.20215,0.403076 c -0.0554,0 -0.0997,0.04485 -0.0997,0.100253 v 0.01602 c 0,0.05536 0.0443,0.100253 0.0997,0.100253 h 0.44235 c 0.0554,0 0.0997,-0.04485 0.0997,-0.100253 v -0.01602 c 0,-0.05545 -0.0443,-0.100253 -0.0997,-0.100253 z m 7.20215,0 c -0.0554,0 -0.0997,0.0448 -0.0997,0.100253 v 0.01602 c 0,0.0554 0.0443,0.100253 0.0997,0.100253 h 0.44235 c 0.0554,0 0.0997,-0.04489 0.0997,-0.100253 v -0.01602 c 0,-0.0554 -0.0443,-0.100253 -0.0997,-0.100253 z m -7.20215,0.403593 c -0.0554,0 -0.0997,0.04485 -0.0997,0.100253 v 0.01602 c 0,0.05545 0.0443,0.100253 0.0997,0.100253 h 0.44235 c 0.0554,0 0.0997,-0.04485 0.0997,-0.100253 v -0.01602 c 0,-0.05535 -0.0443,-0.100253 -0.0997,-0.100253 z m 7.20215,0 c -0.0554,0 -0.0997,0.0448 -0.0997,0.100253 v 0.01602 c 0,0.0554 0.0443,0.100253 0.0997,0.100253 h 0.44235 c 0.0554,0 0.0997,-0.0448 0.0997,-0.100253 v -0.01602 c 0,-0.0554 -0.0443,-0.100253 -0.0997,-0.100253 z m -6.01049,0.766362 c -0.0554,0 -0.0997,0.04434 -0.0997,0.09974 v 0.442351 c 0,0.05539 0.0443,0.09973 0.0997,0.09973 h 0.0165 c 0.0554,0 0.10025,-0.04434 0.10025,-0.09973 v -0.442351 c 0,-0.0554 -0.0448,-0.09974 -0.10025,-0.09974 z m 0.40359,0 c -0.0554,0 -0.0997,0.04434 -0.0997,0.09974 v 0.442351 c 0,0.05539 0.0443,0.09973 0.0997,0.09973 h 0.0165 c 0.0554,0 0.0997,-0.04434 0.0997,-0.09973 v -0.442351 c 0,-0.0554 -0.0443,-0.09974 -0.0997,-0.09974 z m 0.4036,0 c -0.0554,0 -0.10026,0.04434 -0.10026,0.09974 v 0.442351 c 0,0.05539 0.0449,0.09973 0.10026,0.09973 h 0.016 c 0.0555,0 0.10025,-0.04434 0.10025,-0.09973 v -0.442351 c 0,-0.0554 -0.0448,-0.09974 -0.10025,-0.09974 z m 0.40307,0 c -0.0554,0 -0.0997,0.04434 -0.0997,0.09974 v 0.442351 c 0,0.05539 0.0443,0.09973 0.0997,0.09973 h 0.0165 c 0.0554,0 0.0997,-0.04434 0.0997,-0.09973 v -0.442351 c 0,-0.0554 -0.0443,-0.09974 -0.0997,-0.09974 z m 0.4036,0 c -0.0554,0 -0.10026,0.04434 -0.10026,0.09974 v 0.442351 c 0,0.05539 0.0449,0.09973 0.10026,0.09973 h 0.016 c 0.0554,0 0.10025,-0.04434 0.10025,-0.09973 v -0.442351 c 0,-0.0554 -0.0448,-0.09974 -0.10025,-0.09974 z m 0.40359,0 c -0.0555,0 -0.10025,0.04434 -0.10025,0.09974 v 0.442351 c 0,0.05539 0.0448,0.09973 0.10025,0.09973 h 0.016 c 0.0554,0 0.10025,-0.04434 0.10025,-0.09973 v -0.442351 c 0,-0.0554 -0.0448,-0.09974 -0.10025,-0.09974 z m 0.40307,0 c -0.0554,0 -0.0997,0.04434 -0.0997,0.09974 v 0.442351 c 0,0.05539 0.0443,0.09973 0.0997,0.09973 h 0.0165 c 0.0554,0 0.0997,-0.04434 0.0997,-0.09973 v -0.442351 c 0,-0.0554 -0.0443,-0.09974 -0.0997,-0.09974 z m 0.4036,0 c -0.0554,0 -0.10025,0.04434 -0.10025,0.09974 v 0.442351 c 0,0.05539 0.0448,0.09973 0.10025,0.09973 h 0.016 c 0.0554,0 0.10025,-0.04434 0.10025,-0.09973 v -0.442351 c 0,-0.0554 -0.0448,-0.09974 -0.10025,-0.09974 z m 0.40307,0 c -0.0554,0 -0.0997,0.04434 -0.0997,0.09974 v 0.442351 c 0,0.05539 0.0443,0.09973 0.0997,0.09973 h 0.0165 c 0.0554,0 0.0997,-0.04434 0.0997,-0.09973 v -0.442351 c 0,-0.0554 -0.0443,-0.09974 -0.0997,-0.09974 z m 0.4036,0 c -0.0554,0 -0.0997,0.04434 -0.0997,0.09974 v 0.442351 c 0,0.05539 0.0443,0.09973 0.0997,0.09973 h 0.0165 c 0.0554,0 0.0997,-0.04434 0.0997,-0.09973 v -0.442351 c 0,-0.0554 -0.0443,-0.09974 -0.0997,-0.09974 z m 0.40359,0 c -0.0554,0 -0.10025,0.04434 -0.10025,0.09974 v 0.442351 c 0,0.05539 0.0448,0.09973 0.10025,0.09973 h 0.016 c 0.0554,0 0.10025,-0.04434 0.10025,-0.09973 v -0.442351 c 0,-0.0554 -0.0449,-0.09974 -0.10025,-0.09974 z m 0.40308,0 c -0.0554,0 -0.0997,0.04434 -0.0997,0.09974 v 0.442351 c 0,0.05539 0.0443,0.09973 0.0997,0.09973 h 0.0165 c 0.0554,0 0.0997,-0.04434 0.0997,-0.09973 v -0.442351 c 0,-0.0554 -0.0443,-0.09974 -0.0997,-0.09974 z m 0.40359,0 c -0.0555,0 -0.10025,0.04434 -0.10025,0.09974 v 0.442351 c 0,0.05539 0.0448,0.09973 0.10025,0.09973 h 0.016 c 0.0554,0 0.10025,-0.04434 0.10025,-0.09973 v -0.442351 c 0,-0.0554 -0.0448,-0.09974 -0.10025,-0.09974 z m 0.40359,0 c -0.0553,0 -0.10025,0.04434 -0.10025,0.09974 v 0.442351 c 0,0.05539 0.0449,0.09973 0.10025,0.09973 h 0.016 c 0.0555,0 0.10025,-0.04434 0.10025,-0.09973 v -0.442351 c 0,-0.0554 -0.0448,-0.09974 -0.10025,-0.09974 z" /><rect
         style="fill:#cdd6f4;stroke-width:0.264583"
         id="rect15"
         width="2.3115237"
         height="2.9603724"
         x="117.4957"
         y="71.265221"
         rx="0.25" /><g
         id="g123"
         style="fill:#f9e2af"><rect
           style="fill:#f9e2af;stroke-width:0.264583"
           id="rect16"
           width="1.0138224"
           height="1.7843341"
           x="106.99246"
           y="62.695011"
           rx="0.25" /><rect
           style="fill:#f9e2af;stroke-width:0.264583"
           id="rect16-4"
           width="1.0138224"
           height="1.7843341"
           x="63.080269"
           y="-101.04527"
           rx="0.25"
           transform="rotate(90)" /><rect
           style="fill:#f9e2af;stroke-width:0.264583"
           id="rect17"
           width="1.0138224"
           height="1.7843341"
           x="62.363831"
           y="-112.79214"
           rx="0.25"
           transform="rotate(90)" /><rect
           style="fill:#f9e2af;stroke-width:0.264583"
           id="rect18"
           width="1.1754435"
           height="0.64884871"
           x="111.94052"
           y="63.769669"
           rx="0.25" /><rect
           style="fill:#f9e2af;stroke-width:0.264583"
           id="rect19"
           width="1.1754435"
           height="0.64884871"
           x="111.94052"
           y="64.688873"
           rx="0.25" /><rect
           style="fill:#f9e2af;stroke-width:0.264583"
           id="rect20"
           width="1.1754435"
           height="0.64884871"
           x="66.07473"
           y="-117.4622"
           rx="0.25"
           transform="rotate(90)" /><rect
           style="fill:#f9e2af;stroke-width:0.264583"
           id="rect21"
           width="1.1754435"
           height="0.64884871"
           x="66.07473"
           y="-120.35498"
           rx="0.25"
           transform="rotate(90)" /><rect
           style="fill:#f9e2af;stroke-width:0.264583"
           id="rect24"
           width="1.1754435"
           height="0.64884871"
           x="63.181946"
           y="-120.35498"
           rx="0.25"
           transform="rotate(90)" /><rect
           style="fill:#f9e2af;stroke-width:0.264583"
           id="rect25"
           width="1.1754435"
           height="0.64884871"
           x="117.47601"
           y="68.284576"
           rx="0.25" /><rect
           style="fill:#f9e2af;stroke-width:0.264583"
           id="rect26"
           width="1.1754435"
           height="0.64884871"
           x="117.47601"
           y="69.203781"
           rx="0.25" /><rect
           style="fill:#f9e2af;stroke-width:0.264583"
           id="rect27"
           width="1.1754435"
           height="0.64884871"
           x="117.78016"
           y="75.111008"
           rx="0.25" /><rect
           style="fill:#f9e2af;stroke-width:0.264583"
           id="rect28"
           width="1.1754435"
           height="0.64884871"
           x="117.78016"
           y="76.030212"
           rx="0.25" /><rect
           style="fill:#f9e2af;stroke-width:0.264583"
           id="rect29"
           width="1.1754435"
           height="0.64884871"
           x="119.76726"
           y="69.203781"
           rx="0.25" /><rect
           style="fill:#f9e2af;stroke-width:0.264583"
           id="rect30"
           width="1.1754435"
           height="0.64884871"
           x="103.96509"
           y="76.354637"
           rx="0.25" /><rect
           style="fill:#f9e2af;stroke-width:0.264583"
           id="rect31"
           width="1.1754435"
           height="0.64884871"
           x="103.96509"
           y="75.435432"
           rx="0.25" /><rect
           style="fill:#f9e2af;stroke-width:0.264583"
           id="rect32"
           width="1.1754435"
           height="0.64884871"
           x="103.96509"
           y="74.516228"
           rx="0.25" /><rect
           style="fill:#f9e2af;stroke-width:0.264583"
           id="rect35"
           width="1.1754435"
           height="0.64884871"
           x="103.96509"
           y="69.203781"
           rx="0.25" /></g><g
         id="g124"
         style="fill:#313244"><rect
           style="fill:#313244;stroke-width:0.264583"
           id="rect22"
           width="1.1754435"
           height="0.64884871"
           x="66.07473"
           y="-119.30031"
           rx="0.25"
           transform="rotate(90)" /><rect
           style="fill:#313244;stroke-width:0.264583"
           id="rect23"
           width="1.1754435"
           height="0.64884871"
           x="117.78016"
           y="64.094093"
           rx="0.25" /><rect
           style="fill:#313244;stroke-width:0.264583"
           id="rect33"
           width="1.1754435"
           height="0.64884871"
           x="103.96509"
           y="73.597023"
           rx="0.25" /><rect
           style="fill:#313244;stroke-width:0.264583"
           id="rect34"
           width="1.1754435"
           height="0.64884871"
           x="103.96509"
           y="70.508224"
           rx="0.25" /><rect
           style="fill:#313244;stroke-width:0.264583"
           id="rect36"
           width="1.1754435"
           height="0.64884871"
           x="103.96509"
           y="67.899338"
           rx="0.25" /></g><path
         id="rect38"
         style="fill:#cdd6f4;stroke-width:0.264583"
         d="m 102.67229,63.587333 c -0.0554,0 -0.10026,0.04434 -0.10026,0.09974 v 0.164848 c 0,0.0554 0.0449,0.100252 0.10026,0.100252 h 1.35444 c 0.0554,0 0.0997,-0.04485 0.0997,-0.100252 v -0.164848 c 0,-0.0554 -0.0443,-0.09974 -0.0997,-0.09974 z m 2.42775,0 c -0.0554,0 -0.10025,0.04434 -0.10025,0.09974 v 0.164848 c 0,0.0554 0.0448,0.100252 0.10025,0.100252 h 1.35444 c 0.0554,0 0.10026,-0.04485 0.10026,-0.100252 v -0.164848 c 0,-0.0554 -0.0449,-0.09974 -0.10026,-0.09974 z m -2.42775,0.918807 c -0.0554,0 -0.10026,0.04485 -0.10026,0.100252 v 0.164848 c 0,0.0554 0.0449,0.100253 0.10026,0.100253 h 1.35444 c 0.0554,0 0.0997,-0.04485 0.0997,-0.100253 v -0.164848 c 0,-0.0554 -0.0443,-0.100252 -0.0997,-0.100252 z m 0,0.919324 c -0.0554,0 -0.10026,0.04485 -0.10026,0.100252 v 0.164848 c 0,0.0554 0.0449,0.100252 0.10026,0.100252 h 1.35444 c 0.0554,0 0.0997,-0.04485 0.0997,-0.100252 v -0.164848 c 0,-0.0554 -0.0443,-0.100252 -0.0997,-0.100252 z m 2.42775,0 c -0.0554,0 -0.10025,0.04485 -0.10025,0.100252 v 0.164848 c 0,0.0554 0.0448,0.100252 0.10025,0.100252 h 1.35444 c 0.0554,0 0.10026,-0.04485 0.10026,-0.100252 v -0.164848 c 0,-0.0554 -0.0449,-0.100252 -0.10026,-0.100252 z" /><rect
         style="fill:#313244;stroke-width:0.264583"
         id="rect37"
         width="1.6491572"
         height="2.8927841"
         x="103.66711"
         y="63.181946"
         rx="0.25" /><rect
         style="fill:#89b4fa;stroke:#11111b;stroke-width:0.529167;paint-order:stroke markers fill"
         id="rect43"
         width="1.8671968"
         height="0.91243571"
         x="94.697243"
         y="77.003487"
         rx="0.20928779" /><g
         id="g56"
         style="fill:#f5c2e7"><rect
           style="fill:#f5c2e7;stroke-width:0.264583"
           id="rect44"
           width="5.5632172"
           height="0.89025384"
           x="121.98357"
           y="61.883949"
           rx="0.25" /><rect
           style="fill:#f5c2e7;stroke-width:0.264583"
           id="rect45"
           width="0.60222763"
           height="4.9204369"
           x="126.94455"
           y="61.883949"
           rx="0.25" /><rect
           style="fill:#f5c2e7;stroke-width:0.264583"
           id="rect46"
           width="3.1705797"
           height="0.48663226"
           x="124.37619"
           y="66.317749"
           rx="0.25" /><rect
           style="fill:#f5c2e7;stroke-width:0.264583"
           id="rect47"
           width="0.62181932"
           height="2.8860321"
           x="124.37619"
           y="66.317749"
           rx="0.25" /><rect
           style="fill:#f5c2e7;stroke-width:0.264583"
           id="rect49"
           width="3.1705797"
           height="0.48663226"
           x="124.37619"
           y="68.717148"
           rx="0.25" /><rect
           style="fill:#f5c2e7;stroke-width:0.264583"
           id="rect50"
           width="0.62181932"
           height="2.8860321"
           x="126.92495"
           y="68.717148"
           rx="0.25" /><rect
           style="fill:#f5c2e7;stroke-width:0.264583"
           id="rect51"
           width="3.1705797"
           height="0.48663226"
           x="124.37619"
           y="71.116547"
           rx="0.25" /><rect
           style="fill:#f5c2e7;stroke-width:0.264583"
           id="rect52"
           width="0.62181932"
           height="2.8860321"
           x="124.37619"
           y="71.116547"
           rx="0.25" /><rect
           style="fill:#f5c2e7;stroke-width:0.264583"
           id="rect53"
           width="3.1705797"
           height="0.48663226"
           x="124.37619"
           y="73.515945"
           rx="0.25" /><rect
           style="fill:#f5c2e7;stroke-width:0.264583"
           id="rect54"
           width="0.62181932"
           height="2.8860321"
           x="126.92495"
           y="73.515945"
           rx="0.25" /><rect
           style="fill:#f5c2e7;stroke-width:0.309791"
           id="rect55"
           width="4.3466182"
           height="0.48663226"
           x="123.20015"
           y="75.915344"
           rx="0.25" /><rect
           style="fill:#f5c2e7;stroke-width:0.384969"
           id="rect56"
           width="6.7122126"
           height="0.48663226"
           x="120.83456"
           y="64.100853"
           rx="0.25" /></g><rect
         style="fill:#cdd6f4;stroke-width:0.264583"
         id="rect57"
         width="7.5428667"
         height="9.1176777"
         x="92.920547"
         y="65.128197"
         rx="0.25" /><circle
         style="fill:#cdd6f4;stroke-width:0.264583"
         id="path58"
         cx="102.31534"
         cy="78.781052"
         r="0.77050626" /><circle
         style="fill:#585b70;stroke-width:0.264583"
         id="path57"
         cx="102.31534"
         cy="78.781052"
         r="0.51367193" /><circle
         style="fill:#cdd6f4;stroke-width:0.264583"
         id="circle59"
         cx="104.89203"
         cy="78.781052"
         r="0.77050626" /><circle
         style="fill:#585b70;stroke-width:0.264583"
         id="circle60"
         cx="104.89203"
         cy="78.781052"
         r="0.51367193" /><circle
         style="fill:#cdd6f4;stroke-width:0.264583"
         id="circle61"
         cx="107.46872"
         cy="78.781052"
         r="0.77050626" /><circle
         style="fill:#585b70;stroke-width:0.264583"
         id="circle62"
         cx="107.46872"
         cy="78.781052"
         r="0.51367193" /><circle
         style="fill:#cdd6f4;stroke-width:0.264583"
         id="circle63"
         cx="110.04541"
         cy="78.781052"
         r="0.77050626" /><circle
         style="fill:#585b70;stroke-width:0.264583"
         id="circle64"
         cx="110.04541"
         cy="78.781052"
         r="0.51367193" /><circle
         style="fill:#cdd6f4;stroke-width:0.264583"
         id="circle65"
         cx="112.6221"
         cy="78.781052"
         r="0.77050626" /><circle
         style="fill:#585b70;stroke-width:0.264583"
         id="circle66"
         cx="112.6221"
         cy="78.781052"
         r="0.51367193" /><circle
         style="fill:#cdd6f4;stroke-width:0.264583"
         id="circle67"
         cx="115.19879"
         cy="78.781052"
         r="0.77050626" /><circle
         style="fill:#585b70;stroke-width:0.264583"
         id="circle68"
         cx="115.19879"
         cy="78.781052"
         r="0.51367193" /><circle
         style="fill:#cdd6f4;stroke-width:0.264583"
         id="circle69"
         cx="117.77548"
         cy="78.781052"
         r="0.77050626" /><circle
         style="fill:#585b70;stroke-width:0.264583"
         id="circle70"
         cx="117.77548"
         cy="78.781052"
         r="0.51367193" /><circle
         style="fill:#cdd6f4;stroke-width:0.264583"
         id="circle71"
         cx="120.35217"
         cy="78.781052"
         r="0.77050626" /><circle
         style="fill:#585b70;stroke-width:0.264583"
         id="circle72"
         cx="120.35217"
         cy="78.781052"
         r="0.51367193" /><circle
         style="fill:#cdd6f4;stroke-width:0.264583"
         id="circle74"
         cx="102.31534"
         cy="81.290894"
         r="0.77050626" /><circle
         style="fill:#585b70;stroke-width:0.264583"
         id="circle75"
         cx="102.31534"
         cy="81.290894"
         r="0.51367193" /><circle
         style="fill:#cdd6f4;stroke-width:0.264583"
         id="circle76"
         cx="104.89203"
         cy="81.290894"
         r="0.77050626" /><circle
         style="fill:#585b70;stroke-width:0.264583"
         id="circle77"
         cx="104.89203"
         cy="81.290894"
         r="0.51367193" /><circle
         style="fill:#cdd6f4;stroke-width:0.264583"
         id="circle78"
         cx="107.46872"
         cy="81.290894"
         r="0.77050626" /><circle
         style="fill:#585b70;stroke-width:0.264583"
         id="circle79"
         cx="107.46872"
         cy="81.290894"
         r="0.51367193" /><circle
         style="fill:#cdd6f4;stroke-width:0.264583"
         id="circle80"
         cx="110.04541"
         cy="81.290894"
         r="0.77050626" /><circle
         style="fill:#585b70;stroke-width:0.264583"
         id="circle81"
         cx="110.04541"
         cy="81.290894"
         r="0.51367193" /><circle
         style="fill:#cdd6f4;stroke-width:0.264583"
         id="circle82"
         cx="112.6221"
         cy="81.290894"
         r="0.77050626" /><circle
         style="fill:#585b70;stroke-width:0.264583"
         id="circle83"
         cx="112.6221"
         cy="81.290894"
         r="0.51367193" /><circle
         style="fill:#cdd6f4;stroke-width:0.264583"
         id="circle84"
         cx="115.19879"
         cy="81.290894"
         r="0.77050626" /><circle
         style="fill:#585b70;stroke-width:0.264583"
         id="circle85"
         cx="115.19879"
         cy="81.290894"
         r="0.51367193" /><circle
         style="fill:#cdd6f4;stroke-width:0.264583"
         id="circle86"
         cx="117.77548"
         cy="81.290894"
         r="0.77050626" /><circle
         style="fill:#585b70;stroke-width:0.264583"
         id="circle87"
         cx="117.77548"
         cy="81.290894"
         r="0.51367193" /><circle
         style="fill:#cdd6f4;stroke-width:0.264583"
         id="circle88"
         cx="120.35217"
         cy="81.290894"
         r="0.77050626" /><circle
         style="fill:#585b70;stroke-width:0.264583"
         id="circle89"
         cx="120.35217"
         cy="81.290894"
         r="0.51367193" /><circle
         style="fill:#cdd6f4;stroke-width:0.264583"
         id="circle90"
         cx="102.31534"
         cy="58.355831"
         r="0.77050626" /><circle
         style="fill:#585b70;stroke-width:0.264583"
         id="circle91"
         cx="102.31534"
         cy="58.355831"
         r="0.51367193" /><circle
         style="fill:#cdd6f4;stroke-width:0.264583"
         id="circle92"
         cx="104.89203"
         cy="58.355831"
         r="0.77050626" /><circle
         style="fill:#585b70;stroke-width:0.264583"
         id="circle93"
         cx="104.89203"
         cy="58.355831"
         r="0.51367193" /><circle
         style="fill:#cdd6f4;stroke-width:0.264583"
         id="circle94"
         cx="107.46872"
         cy="58.355831"
         r="0.77050626" /><circle
         style="fill:#585b70;stroke-width:0.264583"
         id="circle95"
         cx="107.46872"
         cy="58.355831"
         r="0.51367193" /><circle
         style="fill:#cdd6f4;stroke-width:0.264583"
         id="circle96"
         cx="110.04541"
         cy="58.355831"
         r="0.77050626" /><circle
         style="fill:#585b70;stroke-width:0.264583"
         id="circle97"
         cx="110.04541"
         cy="58.355831"
         r="0.51367193" /><circle
         style="fill:#cdd6f4;stroke-width:0.264583"
         id="circle98"
         cx="112.6221"
         cy="58.355831"
         r="0.77050626" /><circle
         style="fill:#585b70;stroke-width:0.264583"
         id="circle99"
         cx="112.6221"
         cy="58.355831"
         r="0.51367193" /><circle
         style="fill:#cdd6f4;stroke-width:0.264583"
         id="circle100"
         cx="115.19879"
         cy="58.355831"
         r="0.77050626" /><circle
         style="fill:#585b70;stroke-width:0.264583"
         id="circle101"
         cx="115.19879"
         cy="58.355831"
         r="0.51367193" /><circle
         style="fill:#cdd6f4;stroke-width:0.264583"
         id="circle102"
         cx="117.77548"
         cy="58.355831"
         r="0.77050626" /><circle
         style="fill:#585b70;stroke-width:0.264583"
         id="circle103"
         cx="117.77548"
         cy="58.355831"
         r="0.51367193" /><circle
         style="fill:#cdd6f4;stroke-width:0.264583"
         id="circle104"
         cx="120.35217"
         cy="58.355831"
         r="0.77050626" /><circle
         style="fill:#585b70;stroke-width:0.264583"
         id="circle105"
         cx="120.35217"
         cy="58.355831"
         r="0.51367193" /><circle
         style="fill:#cdd6f4;stroke-width:0.264583"
         id="circle106"
         cx="102.31534"
         cy="60.865669"
         r="0.77050626" /><circle
         style="fill:#585b70;stroke-width:0.264583"
         id="circle107"
         cx="102.31534"
         cy="60.865669"
         r="0.51367193" /><circle
         style="fill:#cdd6f4;stroke-width:0.264583"
         id="circle108"
         cx="104.89203"
         cy="60.865669"
         r="0.77050626" /><circle
         style="fill:#585b70;stroke-width:0.264583"
         id="circle109"
         cx="104.89203"
         cy="60.865669"
         r="0.51367193" /><circle
         style="fill:#cdd6f4;stroke-width:0.264583"
         id="circle110"
         cx="107.46872"
         cy="60.865669"
         r="0.77050626" /><circle
         style="fill:#585b70;stroke-width:0.264583"
         id="circle111"
         cx="107.46872"
         cy="60.865669"
         r="0.51367193" /><circle
         style="fill:#cdd6f4;stroke-width:0.264583"
         id="circle112"
         cx="110.04541"
         cy="60.865669"
         r="0.77050626" /><circle
         style="fill:#585b70;stroke-width:0.264583"
         id="circle113"
         cx="110.04541"
         cy="60.865669"
         r="0.51367193" /><circle
         style="fill:#cdd6f4;stroke-width:0.264583"
         id="circle114"
         cx="112.6221"
         cy="60.865669"
         r="0.77050626" /><circle
         style="fill:#585b70;stroke-width:0.264583"
         id="circle115"
         cx="112.6221"
         cy="60.865669"
         r="0.51367193" /><circle
         style="fill:#cdd6f4;stroke-width:0.264583"
         id="circle116"
         cx="115.19879"
         cy="60.865669"
         r="0.77050626" /><circle
         style="fill:#585b70;stroke-width:0.264583"
         id="circle117"
         cx="115.19879"
         cy="60.865669"
         r="0.51367193" /><circle
         style="fill:#cdd6f4;stroke-width:0.264583"
         id="circle118"
         cx="117.77548"
         cy="60.865669"
         r="0.77050626" /><circle
         style="fill:#585b70;stroke-width:0.264583"
         id="circle119"
         cx="117.77548"
         cy="60.865669"
         r="0.51367193" /><circle
         style="fill:#cdd6f4;stroke-width:0.264583"
         id="circle120"
         cx="120.35217"
         cy="60.865669"
         r="0.77050626" /><circle
         style="fill:#585b70;stroke-width:0.264583"
         id="circle121"
         cx="120.35217"
         cy="60.865669"
         r="0.51367193" /><circle
         style="fill:#585b70;stroke-width:0.264583"
         id="path122"
         cx="124.45095"
         cy="59.396175"
         r="1.2043641" /><circle
         style="fill:#585b70;stroke-width:0.264583"
         id="circle122"
         cx="124.90976"
         cy="79.889481"
         r="1.2043641" /><text
         xml:space="preserve"
         style="font-style:normal;font-variant:normal;font-weight:bold;font-stretch:normal;font-size:1.5875px;font-family:'JetBrainsMono Nerd Font';-inkscape-font-specification:'JetBrainsMono Nerd Font Bold';text-align:start;letter-spacing:-0.132292px;writing-mode:lr-tb;direction:ltr;text-anchor:start;fill:#1e1e2e;stroke-width:0.264583"
         x="111.26029"
         y="77.098412"
         id="text122"><tspan
           sodipodi:role="line"
           id="tspan122"
           style="font-style:normal;font-variant:normal;font-weight:bold;font-stretch:normal;font-size:1.5875px;font-family:'JetBrainsMono Nerd Font';-inkscape-font-specification:'JetBrainsMono Nerd Font Bold';letter-spacing:-0.132292px;fill:#1e1e2e;stroke-width:0.264583"
           x="111.26029"
           y="77.098412"
           dx="0 0 0 0 0 0">S2 Mini</tspan></text><text
         xml:space="preserve"
         style="font-style:normal;font-variant:normal;font-weight:bold;font-stretch:normal;font-size:1.5875px;font-family:'JetBrainsMono Nerd Font';-inkscape-font-specification:'JetBrainsMono Nerd Font Bold';text-align:start;letter-spacing:-0.132292px;writing-mode:lr-tb;direction:ltr;text-anchor:start;fill:#1e1e2e;stroke-width:0.264583"
         x="95.909431"
         y="63.48719"
         id="text123"><tspan
           sodipodi:role="line"
           id="tspan123"
           style="fill:#1e1e2e;stroke-width:0.264583"
           x="95.909431"
           y="63.48719">RST</tspan></text></g><g
       id="g11"
       transform="rotate(90,46.145594,28.808524)"><rect
         style="fill:#a6adc8;stroke-width:0.529167"
         id="rect10"
         width="8"
         height="7"
         x="49.002953"
         y="2.7141206" /><rect
         style="fill:#cdd6f4;stroke-width:1.02568"
         id="rect2"
         width="12"
         height="14.425906"
         x="47.002949"
         y="-10.045875" /><g
         id="g10"
         transform="translate(18.040825,-11.638309)"><path
           d="m 33.903791,10.205798 1.058333,1.058333 1.058333,-1.058333"
           id="path1"
           style="fill:none;stroke:#bac2de;stroke-width:0.529167" /><path
           d="M 34.962124,5.9724652 V 11.264131"
           id="path2"
           style="fill:none;stroke:#bac2de;stroke-width:0.529167" /></g></g><g
       id="g12"
       transform="translate(0.12685746,0.36726739)"><text
         xml:space="preserve"
         style="font-size:4.23333px;font-family:'JetBrainsMono Nerd Font';-inkscape-font-specification:'JetBrainsMono Nerd Font';text-align:start;writing-mode:lr-tb;direction:ltr;text-anchor:start;fill:#94e2d5;stroke:none;stroke-width:0.529167"
         x="50.051655"
         y="11.629518"
         id="text11"><tspan
           sodipodi:role="line"
           id="tspan11"
           style="font-size:4.23333px;fill:#94e2d5;stroke:none;stroke-width:0.529167"
           x="50.051655"
           y="11.629518">Hold</tspan></text><path
         d="m 53.810853,14.279167 1.322916,1.322916 1.322917,-1.322916"
         id="path1-3"
         style="fill:none;stroke:#94e2d5;stroke-width:0.529167" /><path
         d="m 53.810853,16.13125 1.322916,1.322917 1.322917,-1.322917"
         id="path2-5"
         style="fill:none;stroke:#94e2d5;stroke-width:0.529167" /></g></g></svg>
