<?xml version="1.0" encoding="UTF-8" standalone="no"?>
<!-- Created with Inkscape (http://www.inkscape.org/) -->

<svg
   width="85mm"
   height="55mm"
   viewBox="0 0 85 55"
   version="1.1"
   id="svg1"
   inkscape:version="1.4 (e7c3feb100, 2024-10-09)"
   sodipodi:docname="lab-0-pysetup.svg"
   xml:space="preserve"
   xmlns:inkscape="http://www.inkscape.org/namespaces/inkscape"
   xmlns:sodipodi="http://sodipodi.sourceforge.net/DTD/sodipodi-0.dtd"
   xmlns:xlink="http://www.w3.org/1999/xlink"
   xmlns="http://www.w3.org/2000/svg"
   xmlns:svg="http://www.w3.org/2000/svg"><sodipodi:namedview
     id="namedview1"
     pagecolor="#505050"
     bordercolor="#eeeeee"
     borderopacity="1"
     inkscape:showpageshadow="0"
     inkscape:pageopacity="0"
     inkscape:pagecheckerboard="0"
     inkscape:deskcolor="#505050"
     inkscape:document-units="mm"
     inkscape:zoom="4.1827231"
     inkscape:cx="138.18749"
     inkscape:cy="154.68392"
     inkscape:window-width="3840"
     inkscape:window-height="2160"
     inkscape:window-x="0"
     inkscape:window-y="0"
     inkscape:window-maximized="1"
     inkscape:current-layer="layer1" /><defs
     id="defs1"><linearGradient
       id="linearGradient2795"><stop
         style="stop-color:#b8b8b8;stop-opacity:0.49803922;"
         offset="0"
         id="stop2797" /><stop
         style="stop-color:#7f7f7f;stop-opacity:0;"
         offset="1"
         id="stop2799" /></linearGradient><linearGradient
       id="linearGradient2787"><stop
         style="stop-color:#7f7f7f;stop-opacity:0.5;"
         offset="0"
         id="stop2789" /><stop
         style="stop-color:#7f7f7f;stop-opacity:0;"
         offset="1"
         id="stop2791" /></linearGradient><linearGradient
       id="linearGradient3676"><stop
         style="stop-color:#b2b2b2;stop-opacity:0.5;"
         offset="0"
         id="stop3678" /><stop
         style="stop-color:#b3b3b3;stop-opacity:0;"
         offset="1"
         id="stop3680" /></linearGradient><linearGradient
       id="linearGradient3236"><stop
         style="stop-color:#f4f4f4;stop-opacity:1"
         offset="0"
         id="stop3244" /><stop
         style="stop-color:white;stop-opacity:1"
         offset="1"
         id="stop3240" /></linearGradient><linearGradient
       id="linearGradient4671"><stop
         style="stop-color:#ffd43b;stop-opacity:1;"
         offset="0"
         id="stop4673" /><stop
         style="stop-color:#ffe873;stop-opacity:1"
         offset="1"
         id="stop4675" /></linearGradient><linearGradient
       id="linearGradient4689"><stop
         style="stop-color:#5a9fd4;stop-opacity:1;"
         offset="0"
         id="stop4691" /><stop
         style="stop-color:#306998;stop-opacity:1;"
         offset="1"
         id="stop4693" /></linearGradient><linearGradient
       x1="224.23996"
       y1="144.75717"
       x2="-65.308502"
       y2="144.75717"
       id="linearGradient2987"
       xlink:href="#linearGradient4671"
       gradientUnits="userSpaceOnUse"
       gradientTransform="translate(100.2702,99.61116)" /><linearGradient
       x1="172.94208"
       y1="77.475983"
       x2="26.670298"
       y2="76.313133"
       id="linearGradient2990"
       xlink:href="#linearGradient4689"
       gradientUnits="userSpaceOnUse"
       gradientTransform="translate(100.2702,99.61116)" /><linearGradient
       inkscape:collect="always"
       xlink:href="#linearGradient4671"
       id="linearGradient2255"
       gradientUnits="userSpaceOnUse"
       gradientTransform="matrix(0.562541,0,0,0.567972,-11.5974,-7.60954)"
       x1="224.23996"
       y1="144.75717"
       x2="-65.308502"
       y2="144.75717" /><linearGradient
       inkscape:collect="always"
       xlink:href="#linearGradient4689"
       id="linearGradient2258"
       gradientUnits="userSpaceOnUse"
       gradientTransform="matrix(0.562541,0,0,0.567972,-11.5974,-7.60954)"
       x1="172.94208"
       y1="76.176224"
       x2="26.670298"
       y2="76.313133" /><radialGradient
       inkscape:collect="always"
       xlink:href="#linearGradient2795"
       id="radialGradient2801"
       cx="61.518883"
       cy="132.28575"
       fx="61.518883"
       fy="132.28575"
       r="29.036913"
       gradientTransform="matrix(1,0,0,0.177966,0,108.7434)"
       gradientUnits="userSpaceOnUse" /></defs><g
     inkscape:label="Layer 1"
     inkscape:groupmode="layer"
     id="layer1"><path
       id="rect1"
       style="fill:#94e2d5;stroke:none;stroke-width:0.529167;paint-order:stroke markers fill"
       d="M 2.500105,0 C 1.115105,0 0,1.115106 0,2.500106 v 50.000049 c 0,1.385 1.115105,2.499589 2.500105,2.499589 H 15.000118 V 0 Z"
       sodipodi:nodetypes="ssssccs" /><path
       id="rect3"
       style="fill:#cdd6f4;stroke:none;stroke-width:0.529167;paint-order:stroke markers fill"
       d="M 50.000049 0 L 50.000049 54.999744 L 82.499874 54.999744 C 83.884874 54.999744 84.99998 53.885155 84.99998 52.500155 L 84.99998 2.5001058 C 84.99998 1.1151058 83.884874 0 82.499874 0 L 50.000049 0 z " /><text
       xml:space="preserve"
       style="font-size:4.23333px;font-family:'JetBrainsMono Nerd Font';-inkscape-font-specification:'JetBrainsMono Nerd Font';text-align:center;letter-spacing:-0.132292px;writing-mode:lr-tb;direction:ltr;text-anchor:middle;fill:#181825;stroke:none;stroke-width:0.529167;paint-order:stroke markers fill"
       x="-27.499872"
       y="9.0240574"
       id="text1"
       transform="rotate(-90)"><tspan
         sodipodi:role="line"
         id="tspan1"
         style="text-align:center;text-anchor:middle;fill:#181825;stroke:none;stroke-width:0.529167"
         x="-27.566019"
         y="9.0240574">Setup</tspan></text><g
       id="g1"
       transform="translate(32.190636,-0.17613312)"
       style="fill:#cdd6f4;stroke:#11111b"><rect
         width="14.074799"
         height="9.8523598"
         x="28.271965"
         y="21.342218"
         rx="1.4074799"
         id="rect2"
         style="fill:#cdd6f4;stroke:#11111b;stroke-width:0.529167" /><path
         d="m 37.420583,26.2684 -2.11122,2.11122 -2.11122,-2.11122"
         id="path2"
         style="fill:#cdd6f4;stroke:#11111b;stroke-width:0.529167" /><path
         d="M 35.309363,28.37962 V 24.15718"
         id="path1"
         style="fill:#cdd6f4;stroke:#11111b;stroke-width:0.529167" /><path
         d="m 35.309363,31.194579 v 2.814959"
         id="path3"
         style="fill:#cdd6f4;stroke:#11111b;stroke-width:0.529167" /><path
         d="m 32.494401,34.009538 h 5.629921"
         id="path4"
         style="fill:#cdd6f4;stroke:#11111b;stroke-width:0.529167" /></g><rect
       style="fill:#45475a;stroke:none;stroke-width:0.529167;stroke-linecap:round;stroke-linejoin:round;stroke-dasharray:none"
       id="rect5"
       width="35"
       height="54.999996"
       x="15.000118"
       y="-4.4408921e-16" /><g
       id="g5"
       transform="matrix(0.43052707,0,0,0.43052707,17.919602,15.327241)"><path
         style="fill:#89b4fa;fill-opacity:1;stroke-width:0.264583"
         d="m 33.691541,13.405609 c -1.212758,0.0056 -2.370915,0.109066 -3.389974,0.289388 -3.00202,0.530359 -3.54707,1.640444 -3.54707,3.68763 v 2.703711 h 7.09414 v 0.901237 h -7.09414 -2.66237 c -2.061755,0 -3.867086,1.239234 -4.431771,3.59668 -0.651356,2.70218 -0.680247,4.388385 0,7.209896 0.504277,2.100223 1.708559,3.596679 3.770313,3.596679 h 2.439127 v -3.241146 c 0,-2.341536 2.025953,-4.406965 4.431771,-4.406966 h 7.085872 c 1.972456,0 3.547071,-1.624056 3.547071,-3.604948 v -6.755143 c 0,-1.922552 -1.621891,-3.366764 -3.547071,-3.68763 -1.218667,-0.202862 -2.48314,-0.295023 -3.695898,-0.289388 z m -3.836458,2.174545 c 0.732776,0 1.331185,0.608183 1.331185,1.355989 -10e-7,0.745156 -0.598409,1.347721 -1.331185,1.347721 -0.735403,0 -1.331185,-0.602566 -1.331185,-1.347721 0,-0.747806 0.595782,-1.355989 1.331185,-1.355989 z"
         id="path1948" /><path
         style="fill:#f9e2af;fill-opacity:1;stroke-width:0.264583"
         d="m 41.81921,20.987575 v 3.150195 c 0,2.442304 -2.070601,4.497917 -4.431771,4.497917 h -7.085872 c -1.940939,0 -3.54707,1.661182 -3.54707,3.604948 v 6.755142 c 0,1.922554 1.671793,3.053378 3.54707,3.604949 2.245606,0.660297 4.399025,0.779629 7.085872,0 1.785979,-0.517099 3.547071,-1.557763 3.547071,-3.604949 v -2.70371 H 33.848637 V 35.39083 h 7.085873 3.547071 c 2.061755,0 2.83005,-1.438118 3.547068,-3.596679 0.740656,-2.222206 0.709141,-4.359216 0,-7.209896 -0.509529,-2.05249 -1.482691,-3.59668 -3.547068,-3.59668 z m -3.985286,17.106966 c 0.735403,10e-7 1.331185,0.602567 1.331185,1.347721 -1e-6,0.747806 -0.595782,1.35599 -1.331185,1.35599 -0.732777,0 -1.331185,-0.608184 -1.331185,-1.35599 0,-0.745154 0.598407,-1.347721 1.331185,-1.347721 z"
         id="path1950" /></g></g></svg>
